<svg fill="rgba(0,0,0,.32)"  font-size="20px" viewBox="0 0 48 48" xmlns="http://www.w3.org/2000/svg" width="20" height="20"><path d="m16.54 8.5-12.46 11a6 6 0 0 0 0 9l12.46 11a6 6 0 0 0 3.97 1.5H40a6 6 0 0 0 6-6V13a6 6 0 0 0-6-6H20.51a6 6 0 0 0-3.97 1.5ZM26.17 24l-4.38-4.38a1 1 0 0 1 0-1.41l1.42-1.42a1 1 0 0 1 1.41 0L29 21.17l4.38-4.38a1 1 0 0 1 1.41 0l1.42 1.42a1 1 0 0 1 0 1.41L31.83 24l4.38 4.38a1 1 0 0 1 0 1.41l-1.42 1.42a1 1 0 0 1-1.41 0L29 26.83l-4.38 4.38a1 1 0 0 1-1.41 0l-1.42-1.42a1 1 0 0 1 0-1.41L26.17 24Z"></path>
                    </svg>