 <svg fill="currentColor" viewBox="0 0 48 48" xmlns="http://www.w3.org/2000/svg" width="24" height="24">
                                                        <path fill-rule="evenodd" clip-rule="evenodd" d="M21.17 24l-7.88-7.88a1 1 0 010-1.41l1.42-1.42a1 1 0 011.41 0L24 21.17l7.88-7.88a1 1 0 011.41 0l1.42 1.42a1 1 0 010 1.41L26.83 24l7.88 7.88a1 1 0 010 1.41l-1.42 1.42a1 1 0 01-1.41 0L24 26.83l-7.88 7.88a1 1 0 01-1.41 0l-1.42-1.42a1 1 0 010-1.41L21.17 24z"></path>
                                                    </svg>