<svg xmlns="http://www.w3.org/2000/svg" fill="none" viewBox="0 0 21 21" width="24" height="24" ><path fill="black" fill-rule="evenodd" d="M.25 2a2 2 0 012-2h12a2 2 0 012 2v3a.5.5 0 01-.5.5h-1a.5.5 0 01-.5-.5V2h-12v14h3a.5.5 0 01.5.5v1a.5.5 0 01-.5.5h-3a2 2 0 01-2-2V2zM14 9a5 5 0 100 10 5 5 0 000-10zm-7 5a7 7 0 1114 0 7 7 0 01-14 0zm10.41-2.386c-.831 0-1.446-.643-1.446-1.364h-2v4.826c0 .34-.296.674-.732.674s-.732-.334-.732-.674.296-.675.732-.675v-2c-1.477 0-2.732 1.166-2.732 2.675 0 1.508 1.255 2.674 2.732 2.674 1.477 0 2.732-1.166 2.732-2.674v-1.773c.442.2.932.31 1.445.31v-2zM4.5 5.5A.5.5 0 015 5h4.5a.5.5 0 01.5.5v1a.5.5 0 01-.5.5H5a.5.5 0 01-.5-.5v-1zM5 9a.5.5 0 00-.5.5v1a.5.5 0 00.5.5h1a.5.5 0 00.5-.5v-1A.5.5 0 006 9H5z" clip-rule="evenodd"></path>
            </svg>