 <svg fill="currentColor" viewBox="0 0 48 48" xmlns="http://www.w3.org/2000/svg" width="14" height="14"><path d="M34.96 9c1.05 0 1.91.86 1.91 1.92v26.16c0 1.06-.86 1.92-1.91 1.92h-9a.96.96 0 00-.96.96v2.08c0 .53.43.96.96.96H36.2a4.8 4.8 0 004.8-4.8V9.8A4.8 4.8 0 0036.2 5H25.96a.96.96 0 00-.96.96v2.08c0 .53.43.96.96.96h9z"></path><path d="M12.8 15.65a.96.96 0 011.35 0l1.45 1.42a.96.96 0 01-.02 1.4L11.7 22h17.33c.53 0 .96.43.96.96v2.08c0 .53-.43.96-.96.96H11.71l3.94 4.04c.37.37.37.98-.01 1.35l-1.5 1.46a.96.96 0 01-1.33 0l-8.1-7.91a.96.96 0 010-1.38l8.1-7.9z"></path>
          </svg>